<?xml version="1.0" standalone="no"?>
<!DOCTYPE svg PUBLIC "-//W3C//DTD SVG 20010904//EN"
 "http://www.w3.org/TR/2001/REC-SVG-20010904/DTD/svg10.dtd">
<svg version="1.0" xmlns="http://www.w3.org/2000/svg"
 width="260.000000pt" height="260.000000pt" viewBox="0 0 260.000000 260.000000"
 preserveAspectRatio="xMidYMid meet">
<metadata>
Created by potrace 1.11, written by Peter Selinger 2001-2013
</metadata>
<g transform="translate(0.000000,260.000000) scale(0.100000,-0.100000)"
fill="#000000" stroke="none">
<path d="M1280 2022 c-46 -2 -90 -8 -98 -15 -40 -32 -32 -95 15 -116 13 -6 80
-11 153 -11 l128 0 46 -69 c25 -38 46 -71 46 -73 0 -3 -110 -5 -245 -5 l-245
0 0 74 0 73 -229 0 -229 0 -26 -30 c-22 -26 -24 -34 -14 -60 5 -17 19 -35 29
-41 11 -5 80 -10 154 -10 101 -1 133 -4 128 -12 -4 -7 -38 -54 -76 -105 -52
-69 -74 -91 -86 -86 -121 50 -205 62 -310 44 -247 -41 -429 -267 -417 -515 7
-137 54 -242 149 -336 196 -195 509 -195 704 0 66 67 106 133 129 218 l17 63
122 0 c82 0 126 4 137 13 8 6 93 116 188 242 95 127 187 247 203 268 l29 38
34 -50 c19 -28 34 -54 34 -58 0 -4 -18 -28 -39 -52 -105 -120 -144 -283 -106
-449 69 -301 420 -466 701 -331 170 82 279 252 283 439 3 153 -40 261 -149
371 -133 134 -329 181 -505 121 -33 -11 -63 -18 -66 -14 -4 4 -75 110 -158
235 -84 125 -157 230 -164 233 -17 6 -164 10 -267 6z m224 -444 c-4 -7 -77
-106 -162 -220 l-154 -208 -93 0 -93 0 -11 51 c-15 68 -53 146 -97 197 l-36
43 56 74 56 75 271 0 c213 0 269 -3 263 -12z m-917 -142 c28 -8 56 -17 62 -20
7 -4 -30 -61 -92 -144 -143 -189 -145 -195 -102 -237 24 -25 26 -25 214 -25
l190 0 -8 -28 c-46 -160 -206 -270 -373 -257 -332 28 -455 446 -190 648 90 68
195 91 299 63z m1660 -27 c70 -34 138 -102 174 -176 19 -40 23 -64 24 -148 0
-95 -2 -103 -34 -163 -41 -76 -104 -135 -179 -170 -48 -22 -71 -26 -143 -25
-74 0 -93 4 -151 31 -77 38 -139 100 -176 180 -23 49 -27 70 -27 147 0 76 4
98 27 145 14 30 37 68 50 83 l24 29 107 -161 c117 -176 135 -191 185 -154 50
37 42 63 -69 231 -62 94 -97 158 -92 163 16 16 96 28 158 23 38 -3 82 -16 122
-35z m-1443 -126 c29 -44 57 -118 49 -127 -10 -9 -205 -7 -201 2 7 19 114 162
120 162 4 0 19 -17 32 -37z"/>
</g>
</svg>
